# Blender v2.78 (sub 0) OBJ File: 'CHAHIN_CANDY_CORN.blend'
# www.blender.org
mtllib CHAHIN_CANDY_CORN.mtl
o Cube.008_Cube.006
v -0.079606 -0.141530 0.125217
v -0.027700 0.133065 0.043571
v -0.079606 -0.141530 -0.125217
v -0.027700 0.133065 -0.043572
v 0.079606 -0.141530 0.125217
v 0.027700 0.133065 0.043571
v 0.079606 -0.141530 -0.125217
v 0.027700 0.133065 -0.043572
v -0.068713 -0.062904 0.108083
v -0.036460 0.092695 0.057351
v -0.036460 0.092695 -0.057351
v -0.068713 -0.062904 -0.108083
v 0.036460 0.092695 -0.057351
v 0.068713 -0.062904 -0.108083
v 0.036460 0.092695 0.057351
v 0.068713 -0.062904 0.108083
v -0.066953 -0.166160 -0.105315
v -0.066953 -0.166160 0.105315
v 0.066953 -0.166160 -0.105315
v 0.066953 -0.166160 0.105315
v -0.020868 0.144830 0.032825
v -0.020868 0.144830 -0.032825
v 0.020868 0.144830 -0.032825
v 0.020868 0.144830 0.032825
vt 0.3756 0.2883
vt 0.1945 0.2676
vt 0.1945 0.1365
vt 0.3756 0.1158
vt 0.8731 0.2883
vt 0.6920 0.2676
vt 0.6920 0.1365
vt 0.8731 0.1158
vt 0.6244 0.2883
vt 0.4433 0.2676
vt 0.4433 0.1365
vt 0.6244 0.1158
vt 0.3756 0.4609
vt 0.1945 0.4402
vt 0.1945 0.3091
vt 0.5770 0.5869
vt 0.7545 0.5869
vt 0.7404 0.6008
vt 0.5911 0.6008
vt 0.3756 0.2514
vt 0.3756 0.1527
vt 0.6341 0.9356
vt 0.5770 0.9237
vt 0.5770 0.7732
vt 0.6341 0.7613
vt 0.3329 0.7546
vt 0.2437 0.7232
vt 0.2437 0.6523
vt 0.3329 0.6209
vt 0.8116 0.7613
vt 0.7545 0.7493
vt 0.7545 0.5989
vt 0.8116 0.5869
vt 0.2437 0.7546
vt 0.1546 0.7232
vt 0.1546 0.6523
vt 0.2437 0.6209
vt 0.9257 0.7613
vt 0.8686 0.7493
vt 0.8686 0.5989
vt 0.9257 0.5869
vt 0.4221 0.7546
vt 0.3329 0.7232
vt 0.3329 0.6523
vt 0.4221 0.6209
vt 0.8686 0.7613
vt 0.8116 0.7493
vt 0.8116 0.5989
vt 0.8686 0.5869
vt 0.2437 0.8884
vt 0.1546 0.8570
vt 0.1546 0.7860
vt 0.2437 0.7546
vt 0.7404 0.7474
vt 0.5911 0.7474
vt 0.7545 0.7613
vt 0.5770 0.7613
vt 0.6603 0.2883
vt 0.6603 0.3871
vt 0.3756 0.3871
vt 0.3756 0.2883
vt 0.1269 0.2514
vt 0.1269 0.1527
vt 0.1269 0.4240
vt 0.1269 0.3252
vt 0.6244 0.2514
vt 0.6244 0.1527
vn -0.9773 0.2121 0.0000
vn 0.0000 0.3230 -0.9464
vn 0.9773 0.2121 0.0000
vn -0.0000 0.3230 0.9464
vn 0.0000 -0.6285 0.7778
vn 0.8648 0.5022 0.0000
vn -0.0000 0.2129 0.9771
vn -0.0000 0.3100 0.9507
vn 0.9905 0.1372 0.0000
vn 0.9792 0.2030 0.0000
vn 0.0000 0.2129 -0.9771
vn 0.0000 0.3100 -0.9507
vn -0.9905 0.1372 0.0000
vn -0.9792 0.2030 0.0000
vn 0.0000 -1.0000 0.0000
vn 0.0000 -0.6285 -0.7778
vn -0.8895 -0.4569 0.0000
vn 0.8895 -0.4569 0.0000
vn 0.0000 1.0000 0.0000
vn -0.8648 0.5022 0.0000
vn 0.0000 0.6744 0.7383
vn 0.0000 0.6744 -0.7383
usemtl Material.045
s off
f 10/1/1 2/2/1 4/3/1 11/4/1
f 11/5/2 4/6/2 8/7/2 13/8/2
f 13/9/3 8/10/3 6/11/3 15/12/3
f 15/13/4 6/14/4 2/15/4 10/1/4
f 5/16/5 1/17/5 18/18/5 20/19/5
f 6/11/6 8/10/6 23/20/6 24/21/6
f 5/22/7 16/23/7 9/24/7 1/25/7
f 16/26/8 15/27/8 10/28/8 9/29/8
f 7/30/9 14/31/9 16/32/9 5/33/9
f 14/34/10 13/35/10 15/36/10 16/37/10
f 3/38/11 12/39/11 14/40/11 7/41/11
f 12/42/12 11/43/12 13/44/12 14/45/12
f 1/46/13 9/47/13 12/48/13 3/49/13
f 9/50/14 10/51/14 11/52/14 12/53/14
f 17/54/15 19/55/15 20/19/15 18/18/15
f 3/56/16 7/57/16 19/55/16 17/54/16
f 1/17/17 3/56/17 17/54/17 18/18/17
f 7/57/18 5/16/18 20/19/18 19/55/18
f 23/58/19 22/59/19 21/60/19 24/61/19
f 4/3/20 2/2/20 21/62/20 22/63/20
f 2/15/21 6/14/21 24/64/21 21/65/21
f 8/7/22 4/6/22 22/66/22 23/67/22
