# ProBuilder 4.5.2
# https://unity3d.com/unity/features/worldbuilding/probuilder
# 10/23/2022 7:16:12 PM

mtllib ./Stairs_(3).mtl
o Stairs (3)

g Stairs (3)
v 1.5046 2.51437 -0.6096
v 1.210434 2.51437 0.3628828
v 1.5046 2.686074 -0.6096
v 1.210434 2.686074 0.3628828
v 1.225011 2.686074 -0.6941727
v 0.9308452 2.686074 0.27831
v 1.225011 2.857778 -0.6941727
v 0.9308452 2.857778 0.27831
v 0.9454225 2.857778 -0.7787455
v 0.6512564 2.857778 0.1937373
v 0.9454225 3.029482 -0.7787455
v 0.6512564 3.029482 0.1937373
v 0.6658337 3.029482 -0.8633182
v 0.3716676 3.029482 0.1091645
v 0.6658337 3.201186 -0.8633182
v 0.3716676 3.201186 0.1091645
v 0.3862449 3.201186 -0.9478909
v 0.09207882 3.201186 0.0245918
v 0.3862449 3.37289 -0.9478909
v 0.09207882 3.37289 0.0245918
v 0.1066561 3.37289 -1.032464
v -0.1875099 3.37289 -0.05998092
v 0.9308452 2.51437 0.27831
v 0.6512564 2.68524 0.193738
v 0.3716674 2.866884 0.1091657
v 0.09207933 3.027834 0.02459383
v -0.1875101 3.210367 -0.05997974
v 1.225011 2.51437 -0.6941727
v 0.9454226 2.68524 -0.7787453
v 0.6658338 2.866884 -0.8633181
v 0.3862453 3.027834 -0.9478907
v 0.1066563 3.210367 -1.032463

vt 0 0
vt -1.016 0
vt 0 0.1651
vt -1.016 0.1651
vt 0 0.2921
vt -1.016 0.2921
vt 0 0.3302
vt -1.016 0.3302
vt 0 0.5842
vt -1.016 0.5842
vt 0 0.4953
vt -1.016 0.4953
vt 0 0.8763
vt -1.016 0.8763
vt 0 0.6604
vt -1.016 0.6604
vt 0 1.1684
vt -1.016 1.1684
vt 0 0.8255
vt -1.016 0.8255
vt 0 1.4605
vt -1.016 1.4605
vt -0.2921019 -2.558489E-06
vt -0.2921019 0.1650974
vt -0.5842017 0.1642956
vt -0.5842019 0.3301975
vt -0.2921019 0.3301975
vt -0.8763018 0.3389528
vt -0.8763019 0.4952974
vt -0.5842019 0.4952974
vt -1.168401 0.4937126
vt -1.168402 0.6603975
vt -0.8763019 0.6603975
vt -1.460502 0.6692253
vt -1.460502 0.8254974
vt -1.168402 0.8254974
vt 0.2921 9.372503E-15
vt 0.2921 0.1651
vt 0.5841998 0.1642982
vt 0.5842 0.3302
vt 0.2921 0.3302
vt 0.8762999 0.3389553
vt 0.8763 0.4953
vt 0.5842 0.4953
vt 1.1684 0.4937151
vt 1.1684 0.6604
vt 0.8763 0.6604
vt 1.4605 0.6692279
vt 1.4605 0.8255
vt 1.1684 0.8255
vt 1.016001 0.669229
vt 3.351442E-07 0.669229
vt 1.016 0.8255011

vn 0.957168 0 0.2895335
vn 0 1.04 0
vn -0.2895335 0 0.957168
vn 0.2895335 0 -0.957168
vn -0.957168 -7.933457E-07 -0.2895336

usemtl ProBuilderDefault
f 6/24/3 8/27/3 10/26/3
f 10/26/3 12/30/3 14/29/3
f 14/29/3 16/33/3 18/32/3
f 18/32/3 20/36/3 22/35/3
f 9/40/4 7/41/4 5/38/4
f 13/43/4 11/44/4 9/40/4
f 17/46/4 15/47/4 13/43/4
f 21/49/4 19/50/4 17/46/4
f 4/4/1 2/2/1 1/1/1
f 1/1/1 3/3/1 4/4/1
f 6/6/2 4/2/2 3/1/2
f 3/1/2 5/5/2 6/6/2
f 8/8/1 6/4/1 5/3/1
f 5/3/1 7/7/1 8/8/1
f 10/10/2 8/6/2 7/5/2
f 7/5/2 9/9/2 10/10/2
f 12/12/1 10/8/1 9/7/1
f 9/7/1 11/11/1 12/12/1
f 14/14/2 12/10/2 11/9/2
f 11/9/2 13/13/2 14/14/2
f 16/16/1 14/12/1 13/11/1
f 13/11/1 15/15/1 16/16/1
f 18/18/2 16/14/2 15/13/2
f 15/13/2 17/17/2 18/18/2
f 20/20/1 18/16/1 17/15/1
f 17/15/1 19/19/1 20/20/1
f 22/22/2 20/18/2 19/17/2
f 19/17/2 21/21/2 22/22/2
f 6/24/3 23/23/3 2/1/3
f 2/1/3 4/3/3 6/24/3
f 10/26/3 24/25/3 23/23/3
f 23/23/3 6/24/3 10/26/3
f 14/29/3 25/28/3 24/25/3
f 24/25/3 10/26/3 14/29/3
f 18/32/3 26/31/3 25/28/3
f 25/28/3 14/29/3 18/32/3
f 22/35/3 27/34/3 26/31/3
f 26/31/3 18/32/3 22/35/3
f 3/3/4 1/1/4 28/37/4
f 28/37/4 5/38/4 3/3/4
f 5/38/4 28/37/4 29/39/4
f 29/39/4 9/40/4 5/38/4
f 9/40/4 29/39/4 30/42/4
f 30/42/4 13/43/4 9/40/4
f 13/43/4 30/42/4 31/45/4
f 31/45/4 17/46/4 13/43/4
f 17/46/4 31/45/4 32/48/4
f 32/48/4 21/49/4 17/46/4
f 21/19/5 32/52/5 27/51/5
f 27/51/5 22/53/5 21/19/5

