# Blender v2.78 (sub 0) OBJ File: 'CHAHIN_LOLLIPOP.blend'
# www.blender.org
mtllib CHAHIN_LOLLIPOP.mtl
o Cube.017_Cube.027
v -0.013066 -1.245228 0.013068
v -0.013066 -0.133249 0.013068
v -0.013066 -1.245228 -0.013068
v -0.013066 -0.133249 -0.013068
v 0.013070 -1.245228 0.013068
v 0.013070 -0.133249 0.013068
v 0.013070 -1.245228 -0.013068
v 0.013070 -0.133249 -0.013068
v -0.167184 -0.023381 0.167186
v -0.167184 -0.023381 -0.167186
v 0.167188 -0.023381 -0.167186
v 0.167188 -0.023381 0.167186
v -0.167184 0.292010 0.167186
v -0.167184 0.292010 -0.167186
v 0.167188 0.292010 -0.167186
v 0.167188 0.292010 0.167186
v 0.207899 0.116165 -0.207897
v 0.207899 0.152464 -0.207897
v -0.207895 0.152464 -0.207897
v -0.207895 0.116165 -0.207897
v 0.190021 0.152464 -0.190018
v 0.190021 0.116165 -0.190018
v 0.190021 0.116165 0.190019
v 0.190021 0.152464 0.190019
v -0.190016 0.152464 0.190019
v -0.190016 0.116165 0.190019
v -0.190016 0.116165 -0.190018
v -0.190016 0.152464 -0.190018
v 0.207899 0.116165 0.207897
v 0.207899 0.152464 0.207897
v -0.207895 0.152464 0.207897
v -0.207895 0.116165 0.207897
v -0.017661 -1.245228 0.000000
v -0.017661 -0.133249 0.000000
v 0.017665 -1.245228 0.000000
v 0.017665 -0.133249 0.000000
v -0.225981 -0.023381 0.000000
v 0.225985 -0.023381 0.000000
v -0.225981 0.292010 0.000000
v 0.225985 0.292010 0.000000
v 0.281015 0.116165 0.000000
v 0.281015 0.152464 0.000000
v -0.281011 0.116165 0.000000
v -0.281011 0.152464 0.000000
v -0.256844 0.152464 0.000000
v -0.256844 0.116165 0.000000
v 0.256848 0.152464 0.000000
v 0.256848 0.116165 0.000000
v 0.000002 -1.245228 -0.017663
v 0.000002 -0.133249 -0.017663
v 0.000002 -1.245228 0.017663
v 0.000002 -0.133249 0.017663
v 0.000002 -0.023381 -0.225983
v 0.000002 -0.023381 0.225983
v 0.000002 0.292010 -0.225983
v 0.000002 0.292010 0.225983
v 0.000002 0.116165 0.281013
v 0.000002 0.152464 -0.281012
v 0.000002 0.116165 -0.281012
v 0.000002 0.152464 0.281013
v 0.000002 0.152464 -0.256846
v 0.000002 0.116165 -0.256846
v 0.000002 0.152464 0.256846
v 0.000002 0.116165 0.256846
v 0.000002 -1.245228 0.000000
v -0.056536 0.409494 0.000000
v -0.041826 0.409494 -0.041828
v 0.000002 0.409494 -0.056538
v 0.041830 0.409494 -0.041828
v 0.056541 0.409494 0.000000
v 0.041830 0.409494 0.041828
v 0.000002 0.409494 0.056538
v -0.041826 0.409494 0.041828
v 0.000002 0.409494 0.000000
v -0.147905 0.365021 0.000000
v -0.109422 0.365021 0.109424
v 0.000002 0.365021 0.147908
v 0.109426 0.365021 0.109424
v 0.147910 0.365021 0.000000
v -0.109422 0.365021 -0.109424
v 0.109426 0.365021 -0.109424
v 0.000002 0.365021 -0.147908
v 0.102517 -0.097448 0.102514
v -0.102512 -0.097448 0.102514
v -0.102512 -0.097448 -0.102514
v 0.102517 -0.097448 -0.102514
v -0.138566 -0.097448 0.000000
v 0.138570 -0.097448 0.000000
v 0.000002 -0.097448 -0.138567
v 0.000002 -0.097448 0.138568
vt 0.7145 0.1798
vt 0.7145 0.0434
vt 0.9108 0.0434
vt 0.9108 0.1798
vt 0.7145 0.4526
vt 0.7145 0.3162
vt 0.9108 0.3162
vt 0.9108 0.4526
vt 0.7145 0.3162
vt 0.7145 0.1798
vt 0.9108 0.1798
vt 0.9108 0.3162
vt 0.2423 0.3524
vt 0.2423 0.2160
vt 0.4386 0.2160
vt 0.4386 0.3524
vt 0.3253 0.1297
vt 0.4083 0.0434
vt 0.5614 0.0883
vt 0.5614 0.1600
vt 0.0892 0.0993
vt 0.2120 0.0434
vt 0.5614 0.3162
vt 0.5614 0.1798
vt 0.5614 0.1798
vt 0.5614 0.0434
vt 0.0892 0.1711
vt 0.2423 0.2160
vt 0.4386 0.2160
vt 0.0892 0.3524
vt 0.0892 0.2160
vt 0.5614 0.4526
vt 0.5614 0.3162
vt 0.4531 0.7827
vt 0.4531 0.7092
vt 0.5168 0.6825
vt 0.5168 0.8023
vt 0.1873 0.7009
vt 0.1873 0.8208
vt 0.1648 0.8302
vt 0.1648 0.6940
vt 0.2510 0.7205
vt 0.2510 0.7940
vt 0.3876 0.6632
vt 0.3036 0.6632
vt 0.2730 0.6074
vt 0.4100 0.6074
vt 0.3165 0.8401
vt 0.4005 0.8401
vt 0.4311 0.8958
vt 0.2941 0.8958
vt 0.8697 0.7969
vt 0.7998 0.8460
vt 0.7763 0.7877
vt 0.8031 0.7689
vt 0.4419 0.9155
vt 0.2862 0.9155
vt 0.5393 0.6730
vt 0.5393 0.8093
vt 0.2622 0.5877
vt 0.4179 0.5877
vt 0.9491 0.6940
vt 0.9491 0.8302
vt 0.9266 0.8208
vt 0.9266 0.7009
vt 0.8277 0.9155
vt 0.6720 0.9155
vt 0.6828 0.8958
vt 0.8198 0.8958
vt 0.0694 0.5784
vt 0.0694 0.6717
vt 0.0451 0.6717
vt 0.0451 0.5784
vt 0.5746 0.8093
vt 0.5746 0.6730
vt 0.5971 0.6825
vt 0.5971 0.8023
vt 0.5569 0.6656
vt 0.5569 0.8147
vt 0.4503 0.9309
vt 0.2800 0.9309
vt 0.2538 0.5723
vt 0.4241 0.5723
vt 0.9668 0.8376
vt 0.8339 0.9309
vt 0.6960 0.5877
vt 0.8517 0.5877
vt 0.8409 0.6074
vt 0.7039 0.6074
vt 0.0938 0.7274
vt 0.0938 0.5784
vt 0.1182 0.5784
vt 0.1182 0.7274
vt 0.0695 0.8208
vt 0.0695 0.6717
vt 0.0938 0.6717
vt 0.0938 0.8208
vt 0.0694 0.8208
vt 0.0695 0.9370
vt 0.0451 0.9370
vt 0.0451 0.8208
vt 0.6636 0.9309
vt 0.5569 0.8147
vt 0.1471 0.8376
vt 0.1471 0.6886
vt 0.8601 0.5723
vt 0.9668 0.6886
vt 0.5569 0.6656
vt 0.6898 0.5723
vt 0.0695 0.9370
vt 0.0938 0.9370
vt 0.6540 0.7064
vt 0.7239 0.6573
vt 0.7474 0.7156
vt 0.7206 0.7343
vt 0.7101 0.8460
vt 0.7421 0.7877
vt 0.0938 0.8437
vt 0.1182 0.8437
vt 0.0695 0.5784
vt 0.0938 0.5784
vt 0.6540 0.7848
vt 0.7206 0.7643
vt 0.7618 0.7516
vt 0.8031 0.7389
vt 0.7816 0.7156
vt 0.8136 0.6573
vt 0.8697 0.7184
vt 0.3582 0.7629
vt 0.3649 0.7556
vt 0.3459 0.7404
vt 0.3392 0.7477
vt 0.3649 0.7462
vt 0.3566 0.7404
vt 0.3392 0.7570
vt 0.3475 0.7629
vn -0.9434 0.0000 -0.3318
vn 0.3318 0.0000 -0.9434
vn 0.9434 0.0000 0.3318
vn -0.3318 0.0000 0.9434
vn -0.0000 -1.0000 -0.0000
vn 0.9434 0.0000 -0.3318
vn -0.9434 0.0000 0.3318
vn 0.3318 0.0000 0.9434
vn -0.3318 0.0000 -0.9434
vn 0.2217 -0.7440 0.6304
vn -0.3248 -0.2042 -0.9235
vn -0.2217 -0.7440 -0.6304
vn 0.6304 -0.7440 -0.2217
vn -0.6304 -0.7440 0.2217
vn -0.4326 0.8887 -0.1521
vn -0.9235 -0.2042 0.3248
vn 0.3248 -0.2042 0.9235
vn 0.9235 -0.2042 -0.3248
vn -0.3248 0.2042 -0.9235
vn -0.9235 0.2042 0.3248
vn 0.3248 0.2042 0.9235
vn 0.0000 1.0000 0.0000
vn 0.9235 0.2042 -0.3248
vn 0.9235 0.2042 0.3248
vn -0.9235 0.2042 -0.3248
vn 0.9235 -0.2042 0.3248
vn -0.9235 -0.2042 -0.3248
vn 0.4326 0.8887 0.1521
vn -0.6304 -0.7440 -0.2217
vn 0.6304 -0.7440 0.2217
vn -0.4326 0.8887 0.1521
vn -0.3248 0.2042 0.9235
vn 0.3248 0.2042 -0.9235
vn -0.3248 -0.2042 0.9235
vn 0.1521 0.8887 0.4326
vn 0.2217 -0.7440 -0.6304
vn 0.3248 -0.2042 -0.9235
vn -0.2217 -0.7440 0.6304
vn 0.4326 0.8887 -0.1521
vn -0.1521 0.8887 0.4326
vn -0.1521 0.8887 -0.4326
vn 0.1521 0.8887 -0.4326
vn 0.2336 0.7102 -0.6641
vn -0.2336 0.7102 -0.6641
vn -0.2336 0.7102 0.6641
vn 0.6641 0.7102 -0.2336
vn 0.2336 0.7102 0.6641
vn -0.6641 0.7102 0.2336
vn 0.6641 0.7102 0.2336
vn -0.6641 0.7102 -0.2336
vn -0.0994 -0.9541 0.2825
vn 0.0994 -0.9541 -0.2825
vn 0.2825 -0.9541 0.0994
vn -0.2825 -0.9541 -0.0994
vn -0.2825 -0.9541 0.0994
vn 0.2825 -0.9541 -0.0994
vn -0.0994 -0.9541 -0.2825
vn 0.0994 -0.9541 0.2825
usemtl Material.024
s off
f 33/1/1 34/2/1 4/3/1 3/4/1
f 49/5/2 50/6/2 8/7/2 7/8/2
f 35/9/3 36/10/3 6/11/3 5/12/3
f 51/13/4 52/14/4 2/15/4 1/16/4
f 65/17/5 35/18/5 5/19/5 51/20/5
f 49/21/5 7/22/5 35/18/5 65/17/5
f 7/23/6 8/24/6 36/10/6 35/9/6
f 1/25/7 2/26/7 34/2/7 33/1/7
f 3/27/5 49/21/5 65/17/5 33/28/5
f 33/28/5 65/17/5 51/20/5 1/29/5
f 5/30/8 6/31/8 52/14/8 51/13/8
f 3/32/9 4/33/9 50/6/9 49/5/9
usemtl Material.025
f 90/34/10 83/35/10 12/36/10 54/37/10
f 53/38/11 10/39/11 27/40/11 62/41/11
f 89/42/12 85/43/12 10/39/12 53/38/12
f 88/44/13 86/45/13 11/46/13 38/47/13
f 87/48/14 84/49/14 9/50/14 37/51/14
f 80/52/15 75/53/15 66/54/15 67/55/15
f 37/51/16 9/50/16 26/56/16 46/57/16
f 54/37/17 12/36/17 23/58/17 64/59/17
f 38/47/18 11/46/18 22/60/18 48/61/18
f 61/62/19 28/63/19 14/64/19 55/65/19
f 45/66/20 25/67/20 13/68/20 39/69/20
f 58/70/2 18/71/2 17/72/2 59/73/2
f 63/74/21 24/75/21 16/76/21 56/77/21
f 64/59/5 23/58/5 29/78/5 57/79/5
f 46/57/5 26/56/5 32/80/5 43/81/5
f 48/61/5 22/60/5 17/82/5 41/83/5
f 45/66/22 28/63/22 19/84/22 44/85/22
f 47/86/23 21/87/23 15/88/23 40/89/23
f 60/90/4 31/91/4 32/92/4 57/93/4
f 44/94/1 19/95/1 20/96/1 43/97/1
f 42/98/3 30/99/3 29/100/3 41/101/3
f 63/74/22 25/67/22 31/102/22 60/103/22
f 62/41/5 27/40/5 20/104/5 59/105/5
f 61/62/22 21/87/22 18/106/22 58/107/22
f 47/86/22 24/75/22 30/108/22 42/109/22
f 21/87/22 47/86/22 42/109/22 18/106/22
f 18/71/6 42/98/6 41/101/6 17/72/6
f 31/110/7 44/94/7 43/97/7 32/111/7
f 24/75/24 47/86/24 40/89/24 16/76/24
f 25/67/22 45/66/22 44/85/22 31/102/22
f 23/58/5 48/61/5 41/83/5 29/78/5
f 27/40/5 46/57/5 43/81/5 20/104/5
f 28/63/25 45/66/25 39/69/25 14/64/25
f 12/36/26 38/47/26 48/61/26 23/58/26
f 10/39/27 37/51/27 46/57/27 27/40/27
f 78/112/28 79/113/28 70/114/28 71/115/28
f 85/43/29 87/48/29 37/51/29 10/39/29
f 83/35/30 88/44/30 38/47/30 12/36/30
f 75/53/31 76/116/31 73/117/31 66/54/31
f 28/63/22 61/62/22 58/107/22 19/84/22
f 22/60/5 62/41/5 59/105/5 17/82/5
f 24/75/22 63/74/22 60/103/22 30/108/22
f 30/118/8 60/90/8 57/93/8 29/119/8
f 26/56/5 64/59/5 57/79/5 32/80/5
f 25/67/32 63/74/32 56/77/32 13/68/32
f 19/95/9 58/120/9 59/121/9 20/96/9
f 21/87/33 61/62/33 55/65/33 15/88/33
f 9/50/34 54/37/34 64/59/34 26/56/34
f 77/122/35 78/112/35 71/115/35 72/123/35
f 86/45/36 89/42/36 53/38/36 11/46/36
f 11/46/37 53/38/37 62/41/37 22/60/37
f 84/49/38 90/34/38 54/37/38 9/50/38
f 74/124/22 66/54/22 73/117/22 72/123/22
f 68/125/22 67/55/22 66/54/22 74/124/22
f 69/126/22 68/125/22 74/124/22 70/114/22
f 70/114/22 74/124/22 72/123/22 71/115/22
f 79/113/39 81/127/39 69/126/39 70/114/39
f 76/116/40 77/122/40 72/123/40 73/117/40
f 82/128/41 80/52/41 67/55/41 68/125/41
f 81/127/42 82/128/42 68/125/42 69/126/42
f 15/88/43 55/65/43 82/128/43 81/127/43
f 55/65/44 14/64/44 80/52/44 82/128/44
f 13/68/45 56/77/45 77/122/45 76/116/45
f 40/89/46 15/88/46 81/127/46 79/113/46
f 56/77/47 16/76/47 78/112/47 77/122/47
f 39/69/48 13/68/48 76/116/48 75/53/48
f 16/76/49 40/89/49 79/113/49 78/112/49
f 14/64/50 39/69/50 75/53/50 80/52/50
f 2/129/51 52/130/51 90/34/51 84/49/51
f 8/131/52 50/132/52 89/42/52 86/45/52
f 6/133/53 36/134/53 88/44/53 83/35/53
f 4/135/54 34/136/54 87/48/54 85/43/54
f 34/136/55 2/129/55 84/49/55 87/48/55
f 36/134/56 8/131/56 86/45/56 88/44/56
f 50/132/57 4/135/57 85/43/57 89/42/57
f 52/130/58 6/133/58 83/35/58 90/34/58
